<?xml version="1.0" encoding="utf-8"?>
<!-- Generator: Adobe Illustrator 16.0.0, SVG Export Plug-In . SVG Version: 6.00 Build 0)  -->
<!DOCTYPE svg PUBLIC "-//W3C//DTD SVG 1.1//EN" "http://www.w3.org/Graphics/SVG/1.1/DTD/svg11.dtd">
<svg version="1.1" id="Layer_1" xmlns="http://www.w3.org/2000/svg" xmlns:xlink="http://www.w3.org/1999/xlink" x="0px" y="0px"
	 width="39.998px" height="36px" viewBox="0 0 39.998 36" enable-background="new 0 0 39.998 36" xml:space="preserve">
<g>
	<g>
		<path fill="#606366" d="M35.998,0h-16c-2.206,0-4,1.794-4,4v9h2V4c0-1.103,0.897-2,2-2h16c1.104,0,2.001,0.897,2.001,2v28
			c0,1.104-0.897,2-2.001,2h-16c-1.103,0-2-0.896-2-2v-7h-2v7c0,2.207,1.794,4,4,4h16c2.207,0,4-1.793,4-4V4
			C39.998,1.794,38.205,0,35.998,0z M3.56,19.999h25.397c0.553,0,1-0.447,1-0.999c0-0.553-0.447-1.001-1-1.001H3.625l5.945-6.378
			c0.391-0.39,0.391-1.022,0-1.413c-0.391-0.392-1.023-0.392-1.414,0L0,19.021l8.031,8.875c0.195,0.195,0.452,0.293,0.707,0.293
			c0.256,0,0.512-0.098,0.707-0.293c0.391-0.391,0.391-1.023,0-1.414L3.56,19.999z"/>
	</g>
</g>
</svg>
