<?xml version="1.0" encoding="utf-8"?>
<!-- Generator: Adobe Illustrator 16.0.0, SVG Export Plug-In . SVG Version: 6.00 Build 0)  -->
<!DOCTYPE svg PUBLIC "-//W3C//DTD SVG 1.1//EN" "http://www.w3.org/Graphics/SVG/1.1/DTD/svg11.dtd">
<svg version="1.1" id="Layer_1" xmlns="http://www.w3.org/2000/svg" xmlns:xlink="http://www.w3.org/1999/xlink" x="0px" y="0px"
	 width="60px" height="60px" viewBox="0 0 60 60" enable-background="new 0 0 60 60" xml:space="preserve">
<g>
	<path fill-rule="evenodd" clip-rule="evenodd" fill="#FFFFFF" d="M30,0C13.432,0,0,13.432,0,30s13.432,30,30,30s30-13.432,30-30
		S46.568,0,30,0z M30,57C15.089,57,3,44.91,3,30C3,15.088,15.089,3,30,3s27,12.088,27,27C57,44.91,44.911,57,30,57z"/>
	<path fill-rule="evenodd" clip-rule="evenodd" fill="#FFFFFF" d="M43.5,28.5h-27c-0.828,0-1.5,0.671-1.5,1.5
		c0,0.828,0.672,1.5,1.5,1.5h27c0.828,0,1.5-0.672,1.5-1.5C45,29.171,44.328,28.5,43.5,28.5z"/>
	<path fill-rule="evenodd" clip-rule="evenodd" fill="#FFFFFF" d="M43.5,19.5h-27c-0.828,0-1.5,0.671-1.5,1.5
		c0,0.828,0.672,1.5,1.5,1.5h27c0.828,0,1.5-0.672,1.5-1.5C45,20.171,44.328,19.5,43.5,19.5z"/>
	<path fill-rule="evenodd" clip-rule="evenodd" fill="#FFFFFF" d="M43.5,37.5h-27c-0.828,0-1.5,0.672-1.5,1.5s0.672,1.5,1.5,1.5h27
		c0.828,0,1.5-0.672,1.5-1.5S44.328,37.5,43.5,37.5z"/>
</g>
</svg>
